<svg width="1440" height="2026" viewBox="0 0 1440 2026" fill="none" xmlns="http://www.w3.org/2000/svg">
<path d="M33 1538H150M150 1538L296.244 1790.79M150 1538L0 1790.79L150 2041L296.244 1790.79M430 2022L296.244 1790.79M1182 266L1330 7L1475 266L1328.5 520M1182 266L1328.5 520M1182 266H885L1032 519H1472M1328.5 520L1182 774L1327 1029L1180 1283.5M1472 774H885M738 1029L440 519H152L298 774H885M738 1029L593 1282L444 1029H151L298 1282H1472M738 1029H1035M1472 1029H1035M885 774L1035 1029M1035 1029L591 1795M591 1795L296.244 1790.79M591 1795L738.5 2045L886 1795M296.244 1790.79L444 1538H738.5M738.5 1538H1033L1180 1283.5M738.5 1538L886 1795M886 1795H1179M1472 1795H1179M1180 1283.5L1327 1538H1472M1179 1795L1039 2045M1179 1795L1327 2045" stroke="#21248A" stroke-width="6"/>
</svg>
