<svg width="61" height="61" viewBox="0 0 61 61" fill="none" xmlns="http://www.w3.org/2000/svg">
<g id="DownloadSimple-r">
<path id="Vector" d="M41.855 27.5596L41.8557 27.5589C42.2132 27.2014 42.4141 26.7165 42.4141 26.2109C42.4141 25.7054 42.2132 25.2205 41.8557 24.863C41.4982 24.5055 41.0134 24.3047 40.5078 24.3047C40.0022 24.3047 39.5174 24.5055 39.1599 24.863L39.1592 24.8637L30.5 33.5229L21.8403 24.8632C21.4826 24.5055 20.9978 24.3047 20.4922 24.3047C19.9866 24.3047 19.5018 24.5055 19.1443 24.863C18.7868 25.2205 18.5859 25.7054 18.5859 26.2109C18.5859 26.7165 18.7868 27.2014 19.1443 27.5589L29.1521 37.5667C29.5096 37.9242 29.9944 38.125 30.5 38.125C31.0056 38.125 31.4904 37.9242 31.8479 37.5667L41.855 27.5596Z" fill="#21248A"/>
<path id="Vector_2" d="M28.5938 9.53125V36.2188C28.5938 37.2715 29.4472 38.125 30.5 38.125C31.5528 38.125 32.4062 37.2715 32.4062 36.2188V9.53125C32.4062 8.47846 31.5528 7.625 30.5 7.625C29.4472 7.625 28.5938 8.47846 28.5938 9.53125Z" fill="#21248A"/>
<path id="Vector_3" d="M11.4375 49.5625V36.2188C11.4375 35.166 10.584 34.3125 9.53125 34.3125C8.47846 34.3125 7.625 35.166 7.625 36.2188V49.5625C7.625 51.1417 8.74166 52.2583 8.74166 52.2583C9.85831 53.375 11.4375 53.375 11.4375 53.375H49.5625C51.1417 53.375 52.2583 52.2583 52.2583 52.2583C53.375 51.1417 53.375 49.5625 53.375 49.5625V36.2188C53.375 35.166 52.5215 34.3125 51.4688 34.3125C50.416 34.3125 49.5625 35.166 49.5625 36.2188V49.5625H11.4375Z" fill="#21248A"/>
</g>
</svg>
