<svg width="88" height="86" viewBox="0 0 88 86" fill="none" xmlns="http://www.w3.org/2000/svg">
<path fill-rule="evenodd" clip-rule="evenodd" d="M8.25 26.875C8.25 26.875 8.25 22.4222 11.4718 19.2736C11.4718 19.2736 14.6937 16.125 19.25 16.125H68.75C68.75 16.125 73.3063 16.125 76.5282 19.2736C76.5282 19.2736 79.75 22.4222 79.75 26.875V64.5C79.75 64.5 79.75 68.9528 76.5282 72.1014C76.5282 72.1014 73.3064 75.25 68.75 75.25H19.25C19.25 75.25 14.6936 75.25 11.4718 72.1014C11.4718 72.1014 8.25 68.9528 8.25 64.5V26.875ZM13.75 26.875L13.75 64.5C13.75 64.5 13.75 66.7264 15.3609 68.3007C15.3609 68.3007 16.9718 69.875 19.25 69.875H68.75C68.75 69.875 71.0282 69.875 72.6391 68.3007C72.6391 68.3007 74.25 66.7264 74.25 64.5V26.875C74.25 26.875 74.25 24.6486 72.6391 23.0743C72.6391 23.0743 71.0282 21.5 68.75 21.5H19.25C19.25 21.5 16.9718 21.5 15.3609 23.0743C15.3609 23.0743 13.75 24.6486 13.75 26.875Z" fill="black"/>
<path fill-rule="evenodd" clip-rule="evenodd" d="M22 55.0938C22 55.0938 22 51.1976 24.8191 48.4425C24.8191 48.4425 27.6382 45.6875 31.625 45.6875H56.375C56.375 45.6875 60.3618 45.6875 63.1809 48.4425C63.1809 48.4425 66 51.1976 66 55.0938C66 55.0938 66 58.9899 63.1809 61.745C63.1809 61.745 60.3618 64.5 56.375 64.5H31.625C31.625 64.5 27.6382 64.5 24.8191 61.745C24.8191 61.745 22 58.9899 22 55.0938ZM27.5 55.0938C27.5 55.0938 27.5 56.7635 28.7082 57.9443C28.7082 57.9443 29.9164 59.125 31.625 59.125H56.375C56.375 59.125 58.0836 59.125 59.2918 57.9443C59.2918 57.9443 60.5 56.7635 60.5 55.0938C60.5 55.0938 60.5 53.424 59.2918 52.2432C59.2918 52.2432 58.0836 51.0625 56.375 51.0625H31.625C31.625 51.0625 29.9164 51.0625 28.7082 52.2432C28.7082 52.2432 27.5 53.424 27.5 55.0938Z" fill="black"/>
<path d="M48.125 48.375V61.8125C48.125 63.2968 49.3562 64.5 50.875 64.5C52.3938 64.5 53.625 63.2968 53.625 61.8125V48.375C53.625 46.8907 52.3938 45.6875 50.875 45.6875C49.3562 45.6875 48.125 46.8907 48.125 48.375Z" fill="black"/>
<path d="M34.375 48.375V61.8125C34.375 63.2968 35.6062 64.5 37.125 64.5C38.6438 64.5 39.875 63.2968 39.875 61.8125V48.375C39.875 46.8907 38.6438 45.6875 37.125 45.6875C35.6062 45.6875 34.375 46.8907 34.375 48.375Z" fill="black"/>
<path d="M46.75 18.8125V5.375C46.75 3.89073 45.5188 2.6875 44 2.6875C42.4812 2.6875 41.25 3.89073 41.25 5.375V18.8125C41.25 20.2968 42.4812 21.5 44 21.5C45.5188 21.5 46.75 20.2968 46.75 18.8125Z" fill="black"/>
<path d="M33 36.2812C33 38.5075 31.1532 40.3125 28.875 40.3125C26.5968 40.3125 24.75 38.5075 24.75 36.2812C24.75 34.055 26.5968 32.25 28.875 32.25C31.1532 32.25 33 34.055 33 36.2812Z" fill="black"/>
<path d="M63.25 36.2812C63.25 38.5075 61.4032 40.3125 59.125 40.3125C56.8468 40.3125 55 38.5075 55 36.2812C55 34.055 56.8468 32.25 59.125 32.25C61.4032 32.25 63.25 34.055 63.25 36.2812Z" fill="black"/>
</svg>
