<svg width="68" height="59" viewBox="0 0 68 59" fill="none" xmlns="http://www.w3.org/2000/svg">
<path id="Vector" d="M67.0176 15.6971V3.92428C67.0176 2.8835 66.6023 1.88534 65.863 1.1494C65.1237 0.413451 64.1209 0 63.0754 0H3.94221C2.89667 0 1.89396 0.413451 1.15465 1.1494C0.415339 1.88534 0 2.8835 0 3.92428V15.6971C0 16.7379 0.415339 17.7361 1.15465 18.472C1.89396 19.208 2.89667 19.6214 3.94221 19.6214C2.89667 19.6214 1.89396 20.0349 1.15465 20.7708C0.415339 21.5068 0 22.5049 0 23.5457V35.3186C0 36.3593 0.415339 37.3575 1.15465 38.0934C1.89396 38.8294 2.89667 39.2428 3.94221 39.2428C2.89667 39.2428 1.89396 39.6563 1.15465 40.3922C0.415339 41.1282 0 42.1263 0 43.1671V54.94C0 55.9808 0.415339 56.9789 1.15465 57.7149C1.89396 58.4508 2.89667 58.8643 3.94221 58.8643H63.0754C64.1209 58.8643 65.1237 58.4508 65.863 57.7149C66.6023 56.9789 67.0176 55.9808 67.0176 54.94V43.1671C67.0176 42.1263 66.6023 41.1282 65.863 40.3922C65.1237 39.6563 64.1209 39.2428 63.0754 39.2428C64.1209 39.2428 65.1237 38.8294 65.863 38.0934C66.6023 37.3575 67.0176 36.3593 67.0176 35.3186V23.5457C67.0176 22.5049 66.6023 21.5068 65.863 20.7708C65.1237 20.0349 64.1209 19.6214 63.0754 19.6214C64.1209 19.6214 65.1237 19.208 65.863 18.472C66.6023 17.7361 67.0176 16.7379 67.0176 15.6971ZM63.0754 54.94H3.94221V43.1671H63.0754V54.94ZM63.0754 35.3186H3.94221V23.5457H63.0754V35.3186ZM63.0754 15.6971H3.94221V3.92428H63.0754V15.6971Z" fill="black"/>
<path id="Vector_2" d="M10.8411 12.7539C12.474 12.7539 13.7977 11.4362 13.7977 9.81071C13.7977 8.18521 12.474 6.86749 10.8411 6.86749C9.20814 6.86749 7.8844 8.18521 7.8844 9.81071C7.8844 11.4362 9.20814 12.7539 10.8411 12.7539Z" fill="black"/>
<path id="Vector_3" d="M20.6966 12.7539C22.3295 12.7539 23.6532 11.4362 23.6532 9.81071C23.6532 8.18521 22.3295 6.86749 20.6966 6.86749C19.0637 6.86749 17.7399 8.18521 17.7399 9.81071C17.7399 11.4362 19.0637 12.7539 20.6966 12.7539Z" fill="black"/>
<path id="Vector_4" d="M10.8411 32.3754C12.474 32.3754 13.7977 31.0577 13.7977 29.4322C13.7977 27.8067 12.474 26.489 10.8411 26.489C9.20814 26.489 7.8844 27.8067 7.8844 29.4322C7.8844 31.0577 9.20814 32.3754 10.8411 32.3754Z" fill="black"/>
<path id="Vector_5" d="M20.6966 32.3754C22.3295 32.3754 23.6532 31.0577 23.6532 29.4322C23.6532 27.8067 22.3295 26.489 20.6966 26.489C19.0637 26.489 17.7399 27.8067 17.7399 29.4322C17.7399 31.0577 19.0637 32.3754 20.6966 32.3754Z" fill="black"/>
<path id="Vector_6" d="M10.8411 51.9967C12.474 51.9967 13.7977 50.679 13.7977 49.0535C13.7977 47.428 12.474 46.1103 10.8411 46.1103C9.20814 46.1103 7.8844 47.428 7.8844 49.0535C7.8844 50.679 9.20814 51.9967 10.8411 51.9967Z" fill="black"/>
<path id="Vector_7" d="M20.6966 51.9967C22.3295 51.9967 23.6532 50.679 23.6532 49.0535C23.6532 47.428 22.3295 46.1103 20.6966 46.1103C19.0637 46.1103 17.7399 47.428 17.7399 49.0535C17.7399 50.679 19.0637 51.9967 20.6966 51.9967Z" fill="black"/>
</svg>
