<svg width="87" height="87" viewBox="0 0 87 87" xmlns="http://www.w3.org/2000/svg">
<path d="M36.4291 43.5L25.4891 52.252C24.8442 52.768 24.4687 53.5491 24.4687 54.375C24.4687 54.4152 24.4696 54.4554 24.4714 54.4956C24.497 55.0711 24.7047 55.6236 25.0645 56.0734C25.5805 56.7183 26.3616 57.0938 27.1875 57.0938C27.2277 57.0938 27.2679 57.0929 27.3081 57.0911C27.8836 57.0655 28.4361 56.8578 28.8859 56.498L42.4796 45.623C43.6521 44.685 43.8422 42.9741 42.9042 41.8016C42.7788 41.6448 42.6364 41.5024 42.4796 41.377L28.8859 30.502C28.4038 30.1164 27.8048 29.9062 27.1875 29.9062L27.1679 29.9063C26.3489 29.9122 25.5762 30.287 25.0645 30.9266C24.6789 31.4087 24.4687 32.0076 24.4687 32.625L24.4688 32.6446C24.4747 33.4636 24.8495 34.2363 25.4891 34.748L36.4291 43.5Z"/>
<path d="M46.2188 57.0938H59.8125C61.314 57.0938 62.5312 55.8765 62.5312 54.375C62.5312 52.8735 61.314 51.6562 59.8125 51.6562H46.2188C44.7172 51.6562 43.5 52.8735 43.5 54.375C43.5 55.8765 44.7172 57.0938 46.2188 57.0938Z"/>
<path fill-rule="evenodd" clip-rule="evenodd" d="M7.99147 19.2014C7.99147 19.2014 7.99147 16.8104 9.68212 15.1198C9.68212 15.1198 11.3728 13.4291 13.7637 13.4291H73.2364C73.2364 13.4291 75.6273 13.4291 77.318 15.1198C77.318 15.1198 79.0086 16.8104 79.0086 19.2014V67.799C79.0086 67.799 79.0086 70.19 77.318 71.8806C77.318 71.8806 75.6273 73.5713 73.2364 73.5713H13.7637C13.7637 73.5713 11.3728 73.5713 9.68212 71.8806C9.68212 71.8806 7.99147 70.19 7.99147 67.799V19.2014ZM13.7586 19.2014L13.7586 67.799C13.7586 67.799 13.7586 67.8041 13.7637 67.8041H73.2364C73.2364 67.8041 73.2381 67.8041 73.2395 67.8032C73.2406 67.8024 73.2415 67.8012 73.2415 67.799V19.2014C73.2415 19.2014 73.2415 19.1963 73.2364 19.1963L13.7637 19.1963C13.7637 19.1963 13.7586 19.1963 13.7586 19.2014Z"/>
</svg>
