<svg width="79" height="79" viewBox="0 0 79 79" fill="none" xmlns="http://www.w3.org/2000/svg">
<path fill-rule="evenodd" clip-rule="evenodd" d="M4.9375 33.3281C4.9375 33.3281 4.9375 31.2829 6.38366 29.8368C6.38366 29.8368 7.82982 28.3906 9.875 28.3906H22.2188C22.2188 28.3906 24.2639 28.3906 25.7101 29.8368C25.7101 29.8368 27.1562 31.2829 27.1562 33.3281V45.6719C27.1562 45.6719 27.1562 47.7171 25.7101 49.1632C25.7101 49.1632 24.2639 50.6094 22.2188 50.6094H9.875C9.875 50.6094 7.82982 50.6094 6.38366 49.1632C6.38366 49.1632 4.9375 47.7171 4.9375 45.6719V33.3281ZM9.875 33.3281V45.6719H22.2188V33.3281H9.875Z" fill="black"/>
<path fill-rule="evenodd" clip-rule="evenodd" d="M46.9062 14.8125C46.9062 14.8125 46.9062 12.7673 48.3524 11.3212C48.3524 11.3212 49.7986 9.875 51.8438 9.875H66.6562C66.6562 9.875 68.7014 9.875 70.1476 11.3212C70.1476 11.3212 71.5938 12.7673 71.5938 14.8125V29.625C71.5938 29.625 71.5938 31.6702 70.1476 33.1163C70.1476 33.1163 68.7014 34.5625 66.6562 34.5625H51.8438C51.8438 34.5625 49.7986 34.5625 48.3524 33.1163C48.3524 33.1163 46.9062 31.6702 46.9062 29.625V14.8125ZM51.8438 14.8125V29.625L66.6562 29.625L66.6562 14.8125H51.8438Z" fill="black"/>
<path fill-rule="evenodd" clip-rule="evenodd" d="M46.9062 49.375C46.9062 49.375 46.9062 47.3298 48.3524 45.8837C48.3524 45.8837 49.7986 44.4375 51.8438 44.4375H66.6562C66.6562 44.4375 68.7014 44.4375 70.1476 45.8837C70.1476 45.8837 71.5938 47.3298 71.5938 49.375V64.1875C71.5938 64.1875 71.5938 66.2327 70.1476 67.6788C70.1476 67.6788 68.7014 69.125 66.6562 69.125H51.8438C51.8438 69.125 49.7986 69.125 48.3524 67.6788C48.3524 67.6788 46.9062 66.2327 46.9062 64.1875V49.375ZM51.8438 49.375V64.1875L66.6562 64.1875L66.6562 49.375H51.8438Z" fill="black"/>
<path d="M24.6875 41.9688H37.0312C38.3947 41.9688 39.5 40.8635 39.5 39.5C39.5 38.1365 38.3947 37.0312 37.0312 37.0312H24.6875C23.324 37.0312 22.2188 38.1365 22.2188 39.5C22.2188 40.8635 23.324 41.9688 24.6875 41.9688Z" fill="black"/>
<path d="M42.5384 25.0571C43.4458 24.6835 44.4375 24.6876 44.4375 24.6876H49.375C50.7385 24.6876 51.8438 23.5823 51.8438 22.2188C51.8438 20.8554 50.7385 19.7501 49.375 19.7501H44.4375C42.479 19.7419 40.6585 20.4915 40.6585 20.4915C38.8379 21.2411 37.4457 22.6333 37.4457 22.6333C36.0535 24.0255 35.3039 25.846 35.3039 25.846C34.5543 27.6666 34.5625 29.6354 34.5625 29.6354L34.5625 49.3751C34.5543 51.3336 35.3039 53.1541 35.3039 53.1541C36.0535 54.9747 37.4457 56.3669 37.4457 56.3669C38.8379 57.7591 40.6585 58.5087 40.6585 58.5087C42.479 59.2583 44.4479 59.2501 44.4479 59.2501L49.375 59.2501C50.7385 59.2501 51.8438 58.1448 51.8438 56.7813C51.8438 55.4179 50.7385 54.3126 49.375 54.3126L44.4272 54.3126C43.4458 54.3167 42.5384 53.9431 42.5384 53.9431C41.631 53.5695 40.9371 52.8755 40.9371 52.8755C40.2432 52.1816 39.8695 51.2742 39.8695 51.2742C39.4959 50.3668 39.5 49.3751 39.5 49.3751L39.5 29.6147C39.4959 28.6334 39.8695 27.726 39.8695 27.726C40.2432 26.8186 40.9371 26.1246 40.9371 26.1246C41.631 25.4307 42.5384 25.0571 42.5384 25.0571Z" fill="black"/>
</svg>
